<svg width="29" height="40" viewBox="0 0 29 40" fill="none" xmlns="http://www.w3.org/2000/svg">
<path d="M14.1872 5.68457C12.8223 5.68457 11.488 6.08931 10.3532 6.84761C9.2183 7.60591 8.33377 8.68371 7.81145 9.94471C7.28912 11.2057 7.15246 12.5933 7.41874 13.932C7.68502 15.2706 8.34228 16.5003 9.30741 17.4654C10.2725 18.4306 11.5022 19.0878 12.8409 19.3541C14.1795 19.6204 15.5671 19.4837 16.8281 18.9614C18.0891 18.4391 19.1669 17.5545 19.9252 16.4197C20.6835 15.2848 21.0883 13.9505 21.0883 12.5856C21.0883 10.7554 20.3612 9.00005 19.067 7.70585C17.7728 6.41164 16.0175 5.68457 14.1872 5.68457ZM14.1872 17.0779C13.2987 17.0779 12.4302 16.8145 11.6914 16.3209C10.9526 15.8272 10.3769 15.1256 10.0368 14.3048C9.69683 13.4839 9.60787 12.5806 9.7812 11.7092C9.95454 10.8378 10.3824 10.0373 11.0107 9.40909C11.6389 8.78083 12.4394 8.35297 13.3108 8.17964C14.1822 8.0063 15.0855 8.09526 15.9063 8.43528C16.7272 8.77529 17.4288 9.35108 17.9224 10.0898C18.416 10.8286 18.6795 11.6971 18.6795 12.5856C18.6763 13.775 18.2016 14.9145 17.3595 15.7544C16.5174 16.5943 15.3766 17.0659 14.1872 17.0659V17.0779Z" fill="#BE52A6"/>
<path d="M14.1875 1.19224e-09C10.4361 0.00313327 6.83842 1.49064 4.18015 4.13762C1.52188 6.78461 0.0190897 10.376 0 14.1273C0 19.7517 3.15546 24.4608 5.46786 27.8933L5.88939 28.5196C8.19008 31.854 10.6582 35.0698 13.2842 38.1546L14.1996 39.2265L15.1149 38.1546C17.7406 35.0695 20.2087 31.8538 22.5098 28.5196L22.9313 27.8813C25.2316 24.4488 28.3871 19.7517 28.3871 14.1273C28.368 10.3739 26.8635 6.7807 24.2027 4.13338C21.5418 1.48605 17.941 -4.86038e-05 14.1875 1.19224e-09ZM20.92 26.4962L20.4864 27.1345C18.4149 30.2418 15.6689 33.7225 14.1875 35.4447C12.7664 33.7225 9.96017 30.2418 7.88865 27.1345L7.46712 26.4962C5.33538 23.3167 2.40875 18.9689 2.40875 14.0791C2.40875 12.5323 2.71342 11.0007 3.30535 9.57159C3.89729 8.14252 4.76491 6.84404 5.85867 5.75028C6.95243 4.65652 8.25091 3.7889 9.67998 3.19696C11.109 2.60502 12.6407 2.30035 14.1875 2.30035C15.7343 2.30035 17.266 2.60502 18.6951 3.19696C20.1241 3.7889 21.4226 4.65652 22.5164 5.75028C23.6101 6.84404 24.4778 8.14252 25.0697 9.57159C25.6616 11.0007 25.9663 12.5323 25.9663 14.0791C25.9663 19.0171 23.0517 23.3649 20.92 26.4962Z" fill="#BE52A6"/>
</svg>
